<?xml version="1.0" standalone="no"?>
<!DOCTYPE svg PUBLIC "-//W3C//DTD SVG 20010904//EN"
 "http://www.w3.org/TR/2001/REC-SVG-20010904/DTD/svg10.dtd">
<svg version="1.0" xmlns="http://www.w3.org/2000/svg"
 width="1600.000000pt" height="1600.000000pt" viewBox="0 0 1600.000000 1600.000000"
 preserveAspectRatio="xMidYMid meet">
<metadata>
Created by potrace 1.11, written by Peter Selinger 2001-2013
</metadata>
<g transform="translate(0.000000,1600.000000) scale(0.100000,-0.100000)"
fill="#000000" stroke="none">
<path d="M12345 15332 c-44 -16 -109 -41 -145 -55 -36 -14 -83 -32 -105 -40
-130 -46 -192 -69 -210 -77 -17 -8 -205 -79 -556 -210 l-76 -28 -42 108 c-58
151 -119 213 -241 245 -96 25 -213 -4 -291 -73 -20 -17 -51 -59 -68 -93 -29
-53 -33 -70 -33 -137 -1 -67 5 -91 39 -178 l40 -101 -119 -58 c-133 -65 -259
-135 -363 -203 -76 -50 -241 -170 -265 -193 -8 -8 -33 -27 -55 -44 -44 -33
-287 -272 -355 -350 -72 -83 -214 -275 -281 -380 -34 -55 -149 -255 -254 -445
-105 -190 -201 -361 -212 -380 -11 -19 -36 -64 -55 -100 -19 -36 -113 -204
-208 -375 -95 -170 -186 -335 -202 -365 -17 -30 -57 -103 -91 -162 l-60 -107
-86 -3 c-108 -5 -874 0 -921 6 -19 2 -78 7 -130 11 -198 14 -193 13 -395 36
-114 13 -175 21 -285 39 -30 5 -71 11 -90 14 -31 5 -192 35 -275 52 -132 27
-352 92 -495 147 -142 54 -310 145 -310 167 0 10 122 86 185 115 130 59 230
93 470 160 152 43 461 104 605 120 30 3 62 8 70 10 8 2 42 7 75 10 33 3 67 7
75 10 8 2 51 6 95 10 44 3 96 8 115 10 39 3 190 15 290 22 36 2 231 6 434 7
l369 4 27 48 c14 27 40 74 57 104 16 30 52 96 80 145 151 271 173 313 173 321
0 13 -162 18 -585 18 -333 0 -663 -8 -726 -19 -13 -2 -64 -6 -114 -10 -49 -3
-103 -7 -120 -9 -16 -2 -61 -7 -100 -10 -38 -4 -81 -9 -95 -11 -14 -2 -47 -7
-75 -10 -60 -7 -131 -15 -165 -21 -102 -15 -236 -37 -295 -49 -38 -8 -81 -16
-95 -19 -276 -50 -645 -166 -860 -271 -178 -87 -353 -219 -437 -330 -46 -60
-250 -366 -324 -485 -203 -324 -363 -646 -410 -820 -7 -25 -14 -52 -17 -60 -2
-8 -5 -52 -6 -96 -1 -80 -2 -82 -36 -110 -68 -56 -231 -207 -334 -310 -513
-511 -948 -1155 -1246 -1839 -28 -66 -57 -133 -65 -150 -26 -60 -88 -222 -117
-305 -33 -96 -37 -107 -39 -118 -1 -4 -15 -44 -31 -90 -49 -146 -134 -449
-154 -552 -3 -14 -9 -38 -14 -55 -5 -16 -11 -41 -14 -55 -2 -14 -16 -83 -30
-155 -14 -71 -28 -143 -31 -160 -3 -16 -7 -41 -10 -55 -6 -31 -13 -73 -20
-124 -3 -21 -7 -48 -10 -60 -6 -28 -13 -80 -21 -152 -3 -32 -7 -61 -9 -64 -2
-3 -6 -45 -10 -95 -3 -49 -8 -97 -10 -105 -7 -26 -20 -206 -32 -415 -10 -171
-10 -686 0 -810 6 -84 21 -212 32 -280 3 -16 7 -41 9 -55 64 -393 208 -823
400 -1195 66 -128 210 -373 226 -385 4 -3 9 -12 12 -20 4 -8 36 -55 72 -105
36 -49 74 -101 83 -114 109 -149 253 -313 442 -501 173 -171 217 -212 376
-341 331 -269 663 -483 1070 -689 357 -181 800 -356 1150 -456 386 -111 643
-169 1005 -228 51 -9 227 -33 285 -40 28 -4 66 -9 85 -11 19 -2 62 -7 95 -10
71 -6 165 -15 219 -20 192 -20 896 -27 1151 -12 151 9 397 30 485 42 19 3 56
7 82 10 82 9 182 23 338 49 141 24 143 24 305 57 178 36 377 85 570 140 163
47 432 135 457 149 10 6 22 10 27 10 6 0 73 25 150 55 459 180 830 372 1224
633 522 346 954 750 1305 1223 184 248 340 519 485 840 94 207 212 589 253
819 26 145 34 192 39 235 4 28 8 61 10 73 26 157 26 940 1 1092 -3 14 -7 63
-11 110 -3 47 -8 99 -10 115 -5 40 -13 109 -20 170 -4 28 -10 75 -15 105 -5
30 -12 73 -14 95 -30 240 -135 700 -232 1014 -68 219 -182 536 -229 636 -8 17
-32 71 -53 120 -75 172 -255 526 -309 605 -12 19 -23 38 -23 42 0 20 -341 533
-390 586 -9 9 -27 33 -40 52 -41 59 -218 273 -314 380 -79 87 -392 397 -476
471 -47 41 -87 76 -90 79 -3 3 -25 21 -50 41 -25 20 -56 47 -70 59 -14 12 -64
51 -111 87 -86 64 -86 64 -93 118 -16 137 -168 475 -355 786 -96 162 -303 478
-384 588 -167 226 -495 405 -993 542 -43 12 -91 24 -106 26 -16 3 -28 7 -28 9
0 2 13 25 28 51 16 26 31 55 35 63 29 58 146 228 230 332 211 263 506 505 797
655 152 78 149 77 160 47 65 -169 108 -232 194 -277 61 -32 212 -31 277 1 159
79 222 226 169 394 -13 40 -27 78 -31 83 -4 6 -9 21 -11 35 -3 24 10 30 457
197 253 95 515 194 583 219 95 37 134 57 172 91 88 79 123 196 92 313 -37 146
-140 230 -292 237 -63 3 -87 -1 -155 -25z m-2919 -3028 c59 -14 114 -27 123
-29 177 -39 467 -147 586 -219 80 -48 83 -54 49 -81 -45 -36 -216 -119 -341
-164 -94 -34 -324 -100 -406 -117 -133 -26 -336 -63 -377 -67 -43 -5 -55 -7
-123 -22 l-29 -6 35 63 c18 35 43 79 54 98 11 19 67 121 125 225 58 105 115
208 128 230 12 22 31 57 43 78 11 20 22 37 23 37 1 0 51 -12 110 -26z m1250
-1010 c89 -150 185 -334 198 -380 16 -53 -185 -191 -399 -273 -33 -13 -69 -27
-80 -32 -28 -12 -238 -79 -266 -84 -12 -3 -43 -11 -68 -19 -25 -9 -68 -20 -96
-27 -27 -6 -57 -12 -65 -14 -136 -32 -485 -96 -595 -110 -27 -3 -61 -8 -75
-10 -27 -4 -244 -33 -300 -40 -19 -2 -71 -7 -115 -10 -44 -4 -98 -8 -120 -10
-22 -2 -85 -6 -140 -10 -55 -4 -108 -9 -118 -11 -136 -25 -1285 -25 -1522 1
-45 5 -159 14 -250 20 -155 11 -220 18 -470 51 -633 82 -1044 188 -1405 361
-101 48 -239 129 -279 163 -23 19 -23 23 -12 62 12 40 149 318 162 328 3 3 19
30 36 60 51 94 87 150 96 150 5 0 26 -13 46 -30 110 -86 436 -226 691 -295 36
-9 85 -23 110 -30 41 -12 116 -30 165 -39 11 -2 50 -11 87 -20 65 -15 376 -69
468 -80 25 -4 56 -8 70 -10 14 -2 52 -7 85 -10 33 -4 71 -8 85 -11 24 -4 65
-7 235 -20 44 -4 98 -8 120 -10 259 -26 1157 -26 1455 0 25 2 81 6 125 10 44
4 94 8 110 9 101 10 173 18 195 21 14 2 48 7 75 10 28 3 64 7 80 10 17 3 48 7
70 10 41 5 77 11 130 20 17 3 46 8 65 11 166 28 516 109 645 150 249 79 515
198 610 272 28 22 54 36 58 32 4 -4 50 -78 103 -166z m679 -1099 c308 -257
659 -622 874 -910 29 -38 58 -77 66 -87 37 -46 210 -307 270 -408 37 -63 78
-131 89 -150 45 -73 225 -441 283 -580 57 -135 136 -345 170 -450 29 -91 94
-306 98 -325 2 -11 18 -74 35 -140 16 -66 32 -131 35 -145 3 -14 7 -36 10 -50
3 -14 8 -38 11 -55 2 -16 9 -46 14 -65 5 -19 11 -53 15 -75 3 -22 12 -78 20
-125 14 -84 19 -117 29 -195 17 -130 26 -209 31 -275 3 -41 8 -88 10 -105 25
-176 26 -885 1 -1020 -2 -11 -7 -47 -12 -80 -4 -33 -8 -62 -9 -65 0 -3 -5 -27
-10 -55 -4 -27 -9 -54 -11 -60 -1 -5 -5 -26 -8 -45 -29 -161 -134 -477 -224
-676 -333 -734 -920 -1358 -1747 -1859 -146 -89 -563 -303 -640 -329 -27 -10
-54 -21 -60 -25 -20 -16 -324 -131 -486 -185 -349 -116 -633 -188 -1034 -262
-22 -4 -44 -8 -50 -9 -5 -1 -34 -5 -64 -9 -29 -4 -56 -8 -60 -10 -3 -2 -35 -7
-70 -10 -36 -4 -67 -8 -70 -10 -3 -2 -37 -7 -76 -10 -38 -4 -83 -8 -100 -10
-16 -2 -66 -7 -110 -11 -44 -5 -93 -9 -110 -11 -257 -26 -975 -25 -1255 1 -19
2 -73 6 -120 10 -47 3 -96 8 -110 10 -14 2 -50 6 -80 10 -30 4 -67 8 -81 11
-14 2 -41 6 -60 8 -19 3 -56 8 -84 11 -78 11 -372 63 -450 81 -368 83 -641
161 -925 264 -111 40 -252 94 -285 110 -11 5 -83 37 -160 71 -191 85 -438 213
-553 286 -29 18 -55 33 -58 33 -25 0 -449 299 -594 419 -240 199 -509 471
-644 651 -22 30 -51 66 -63 80 -13 14 -23 28 -23 32 0 3 -6 13 -13 20 -7 7
-40 54 -74 103 -335 500 -523 1026 -580 1617 -15 157 -8 762 11 963 3 22 7 74
11 115 14 170 39 364 71 555 31 192 33 203 44 245 5 19 12 51 15 70 41 242
194 752 318 1060 253 631 579 1160 1017 1655 115 130 463 465 484 465 4 0 40
-20 80 -45 79 -49 316 -165 338 -165 8 0 18 -4 24 -9 18 -19 447 -154 554
-175 14 -3 50 -12 80 -21 130 -36 619 -124 830 -149 58 -7 213 -25 265 -31 22
-2 72 -7 110 -10 39 -3 88 -8 110 -10 75 -8 221 -17 485 -31 304 -16 1159 -9
1370 11 19 2 80 6 135 9 55 4 111 8 125 11 14 2 61 7 105 10 44 3 91 8 105 10
14 2 57 7 95 10 68 6 107 10 170 20 17 2 53 7 80 10 55 7 97 12 135 19 14 3
61 10 105 16 44 7 89 14 100 16 11 2 34 7 50 9 632 109 1204 309 1484 521 l43
34 47 -38 c25 -20 73 -59 106 -87z"/>
</g>
</svg>
