<?xml version="1.0" encoding="utf-8"?>
<svg version="1.1" id="mate" xmlns="http://www.w3.org/2000/svg" xmlns:xlink="http://www.w3.org/1999/xlink" x="0px" y="0px"
	 viewBox="0 0 40 40" style="enable-background:new 0 0 40 40;" xml:space="preserve">
<g>
	<g>
		<path fill="#fff" d="M20.7,7.3c0,0.1,0,0.1-0.1,0.1c-0.2,0.4-0.5,0.9-0.7,1.3c0,0.1-0.1,0.1-0.2,0.1c-1,0-1.9,0-2.9,0.1
			c-0.9,0.1-1.8,0.2-2.6,0.5c-0.4,0.1-0.7,0.3-1.1,0.4c-0.1,0-0.2,0.1-0.3,0.2c0.2,0.1,0.3,0.2,0.4,0.3c0.6,0.3,1.3,0.5,1.9,0.6
			c1.5,0.3,3,0.4,4.5,0.3c0.2,0,0.3,0,0.5,0c0.1,0,0.1,0,0.2-0.1c0.6-1,1.1-2.1,1.7-3.1c0.3-0.6,0.6-1.1,1-1.7
			c0.8-1.3,2-2.3,3.4-2.9c0.1,0,0.1,0,0.2-0.1c-0.1-0.2-0.1-0.3-0.2-0.4c-0.1-0.3,0-0.6,0.2-0.8c0.2-0.2,0.5-0.3,0.8-0.1
			C27.8,2,27.9,2.1,28,2.3c0.1,0.1,0.1,0.3,0.2,0.4c0.2-0.1,0.3-0.1,0.5-0.2c0.8-0.3,1.5-0.6,2.3-0.9c0.3-0.1,0.7,0,0.9,0.2
			C32,2.1,32.1,2.5,32,2.8c-0.1,0.2-0.3,0.3-0.5,0.4c-0.9,0.3-1.8,0.7-2.6,1c0,0-0.1,0-0.1,0c0,0.1,0.1,0.3,0.1,0.4
			c0.1,0.4-0.1,0.8-0.5,1c-0.4,0.2-0.8,0-1-0.4c0-0.1-0.1-0.2-0.1-0.2c0,0,0-0.1-0.1-0.1c-1.4,0.6-2.4,1.6-3.1,2.9
			c0.5,0.2,0.9,0.3,1.4,0.5c0.5,0.2,1,0.4,1.3,0.8c0.3,0.4,0.6,0.8,0.8,1.2c0.4,0.6,0.7,1.2,1,1.9c0.1,0.2,0.1,0.4,0.2,0.6
			c0,0,0.1,0.1,0.1,0.1c1.1,0.9,2.1,1.9,3,3c1.2,1.6,2,3.3,2.6,5.2c0.3,1.1,0.5,2.3,0.7,3.5c0.1,0.9,0.1,1.7,0.1,2.6
			c-0.1,1.4-0.5,2.8-1.1,4c-0.9,1.8-2.3,3.2-3.9,4.3c-1.7,1.2-3.5,1.9-5.5,2.4c-2,0.5-4,0.7-6,0.6c-1.9-0.1-3.7-0.4-5.4-0.9
			c-2-0.6-3.8-1.6-5.4-2.9c-1.6-1.3-2.7-3-3.4-4.9C4.1,28.4,4,27.1,4,25.7c0-1,0.1-2,0.3-3c0.5-2.8,1.5-5.3,3.2-7.6
			c0.6-0.8,1.3-1.5,2-2.1C9.6,13,9.6,13,9.6,12.9c0-0.2,0-0.4,0.1-0.5c0.2-0.6,0.5-1.2,0.9-1.8c0.3-0.5,0.6-0.9,0.9-1.3
			c0.3-0.5,0.8-0.7,1.2-1c0.8-0.4,1.6-0.6,2.4-0.7c1.8-0.3,3.6-0.4,5.4-0.3C20.6,7.3,20.6,7.3,20.7,7.3z M10.6,14.4
			C10,14.9,9.5,15.4,9,16c-1.6,1.9-2.5,4.2-3,6.6c-0.2,1.1-0.3,2.1-0.3,3.2c0,1.2,0.1,2.3,0.5,3.4c0.6,1.6,1.6,3,2.9,4.1
			c1.3,1.1,2.9,1.9,4.5,2.5c1.6,0.6,3.3,0.9,5,0.9c1.8,0.1,3.6,0,5.3-0.4c1.9-0.4,3.6-1.1,5.2-2.2c1.2-0.8,2.2-1.7,3-2.9
			c0.9-1.4,1.5-2.9,1.5-4.6c0-1.4-0.1-2.9-0.4-4.3c-0.6-2.7-1.9-5-3.9-7c-0.4-0.4-0.8-0.8-1.3-1.1c-0.1,0.1-0.2,0.1-0.2,0.2
			c-0.6,0.4-1.3,0.7-2,0.9c-0.8,0.2-1.7,0.4-2.5,0.5c-1,0.1-1.9,0.2-2.9,0.2c-0.9,0-1.9,0-2.8,0c-1.1,0-2.3-0.2-3.4-0.4
			C12.9,15.4,11.7,15.1,10.6,14.4z M26.5,11.4c-0.2,0.1-0.3,0.2-0.4,0.3c-0.7,0.4-1.4,0.6-2.1,0.7c-1.3,0.3-2.7,0.4-4.1,0.5
			c-1.7,0-3.4-0.1-5.1-0.4c-0.7-0.2-1.5-0.3-2.2-0.7c-0.2-0.1-0.4-0.2-0.7-0.4c-0.1,0.1-0.2,0.2-0.2,0.4c-0.2,0.3-0.3,0.6-0.5,0.9
			c-0.1,0.2-0.1,0.2,0.1,0.3c0.1,0.1,0.3,0.2,0.4,0.2c0.9,0.5,1.9,0.8,2.9,0.9c0.9,0.1,1.7,0.2,2.6,0.3c1.1,0.1,2.3,0.1,3.4,0
			c0.9,0,1.7-0.1,2.6-0.3c1-0.2,2-0.4,2.9-0.7c0.3-0.1,0.6-0.3,0.9-0.5c0.1-0.1,0.1-0.1,0-0.2C27,12.2,26.7,11.8,26.5,11.4z
			 M22.3,11c0.1,0,0.1,0,0.1,0c0.3-0.1,0.7-0.1,1-0.2c0.6-0.1,1.3-0.3,1.8-0.6c0.1,0,0.2-0.1,0.3-0.2c-0.7-0.5-1.5-0.6-2.3-0.8
			C23,9.8,22.6,10.4,22.3,11z"/>
	</g>
</g>
</svg>
