<svg id="mate" xmlns="http://www.w3.org/2000/svg" width="11.04mm" height="13.04mm" viewBox="0 0 31.3 36.96">
  <path d="M16.7,5.74c0,.1,0,.1-.1.1-.2.4-.5.9-.7,1.3,0,.1-.1.1-.2.1a28.1,28.1,0,0,0-2.9.1,10.89,10.89,0,0,0-2.6.5c-.4.1-.7.3-1.1.4-.1,0-.2.1-.3.2a1.38,1.38,0,0,1,.4.3,7,7,0,0,0,1.9.6,17.06,17.06,0,0,0,4.5.3h.5c.1,0,.1,0,.2-.1.6-1,1.1-2.1,1.7-3.1a15.05,15.05,0,0,1,1-1.7,7.39,7.39,0,0,1,3.4-2.9c.1,0,.1,0,.2-.1-.1-.2-.1-.3-.2-.4a.78.78,0,0,1,.2-.8.61.61,0,0,1,.8-.1c.4,0,.5.1.6.3s.1.3.2.4c.2-.1.3-.1.5-.2.8-.3,1.5-.6,2.3-.9a1,1,0,0,1,.9.2,1.73,1.73,0,0,1,.1,1,1,1,0,0,1-.5.4c-.9.3-1.8.7-2.6,1h-.1c0,.1.1.3.1.4a.88.88,0,0,1-.5,1,.73.73,0,0,1-1-.4.35.35,0,0,0-.1-.2.1.1,0,0,0-.1-.1,6.26,6.26,0,0,0-3.1,2.9c.5.2.9.3,1.4.5a2.87,2.87,0,0,1,1.3.8,8.34,8.34,0,0,1,.8,1.2,11.4,11.4,0,0,1,1,1.9c.1.2.1.4.2.6l.1.1a21.27,21.27,0,0,1,3,3,16.92,16.92,0,0,1,2.6,5.2c.3,1.1.5,2.3.7,3.5a22.6,22.6,0,0,1,.1,2.6,10.82,10.82,0,0,1-1.1,4,11.55,11.55,0,0,1-3.9,4.3,15.9,15.9,0,0,1-5.5,2.4,20.41,20.41,0,0,1-6,.6A23.44,23.44,0,0,1,9.4,36,15.69,15.69,0,0,1,4,33.14a11.17,11.17,0,0,1-3.4-4.9,11.66,11.66,0,0,1-.6-4.1,15.26,15.26,0,0,1,.3-3,17.68,17.68,0,0,1,3.2-7.6,13.36,13.36,0,0,1,2-2.1c.1,0,.1,0,.1-.1a.75.75,0,0,1,.1-.5A7.57,7.57,0,0,1,6.6,9a14.63,14.63,0,0,1,.9-1.3,3.78,3.78,0,0,1,1.2-1A7.28,7.28,0,0,1,11.1,6a24.49,24.49,0,0,1,5.4-.3ZM6.6,12.84A12.09,12.09,0,0,0,5,14.44,14.73,14.73,0,0,0,2,21a17.33,17.33,0,0,0-.3,3.2,9.67,9.67,0,0,0,.5,3.4,9.93,9.93,0,0,0,2.9,4.1,15.27,15.27,0,0,0,4.5,2.5,14.26,14.26,0,0,0,5,.9,18.7,18.7,0,0,0,5.3-.4,14.1,14.1,0,0,0,5.2-2.2,10.37,10.37,0,0,0,3-2.9A8.4,8.4,0,0,0,29.6,25a20.87,20.87,0,0,0-.4-4.3,14,14,0,0,0-3.9-7,6.89,6.89,0,0,0-1.3-1.1c-.1.1-.2.1-.2.2a7.22,7.22,0,0,1-2,.9,22.11,22.11,0,0,1-2.5.5,28.25,28.25,0,0,1-2.9.2H13.6a19.7,19.7,0,0,1-3.4-.4A9,9,0,0,1,6.6,12.84Zm15.9-3a1.38,1.38,0,0,0-.4.3,5.79,5.79,0,0,1-2.1.7,27,27,0,0,1-4.1.5,29.22,29.22,0,0,1-5.1-.4,9.35,9.35,0,0,1-2.2-.7,5.74,5.74,0,0,1-.7-.4.52.52,0,0,0-.2.4c-.2.3-.3.6-.5.9s-.1.2.1.3a.76.76,0,0,0,.4.2,7.54,7.54,0,0,0,2.9.9l2.6.3a19.3,19.3,0,0,0,3.4,0,11.53,11.53,0,0,0,2.6-.3,24.6,24.6,0,0,0,2.9-.7,4.05,4.05,0,0,0,.9-.5c.1-.1.1-.1,0-.2A3,3,0,0,0,22.5,9.84Zm-4.2-.4h.1c.3-.1.7-.1,1-.2a5.46,5.46,0,0,0,1.8-.6c.1,0,.2-.1.3-.2a6.31,6.31,0,0,0-2.3-.8A15.11,15.11,0,0,1,18.3,9.44Z" fill="#3c3c3c"/>
</svg>
