<?xml version="1.0" encoding="utf-8"?>
<!DOCTYPE svg PUBLIC "-//W3C//DTD SVG 1.1//EN" "http://www.w3.org/Graphics/SVG/1.1/DTD/svg11.dtd">
<svg version="1.1" id="Layer_1" xmlns="http://www.w3.org/2000/svg" xmlns:xlink="http://www.w3.org/1999/xlink" x="0px" y="0px"
	 width="460px" height="350px" viewBox="0 0 460 350" enable-background="new 0 0 460 350" xml:space="preserve">
<path fill-rule="evenodd" clip-rule="evenodd" fill="#EEECE6" d="M127.738,54.394V43.208c0,0,1.581-8.693,9.909-8.693
	s73.982,0,73.982,0s9.605,0.608,9.605,10.091c0,9.483,0,10.091,0,10.091L127.738,54.394z"/>
<path fill-rule="evenodd" clip-rule="evenodd" fill="#EEECE6" d="M127.69,152.545h93.718v20.774c0,0-0.923,7.694-11.08,7.694
	c-10.156,0-73.712,0-73.712,0s-8.772-0.153-8.772-9.54C127.844,162.085,127.69,152.545,127.69,152.545z"/>
<path fill-rule="evenodd" clip-rule="evenodd" fill="#EEECE6" d="M310.149,92.554h10.555c0,0,8.27,0.327,8.27,10.554
	c0,10.228,0,68.657,0,68.657s-0.979,9.684-8.596,9.684c-7.617,0-10.011,0-10.011,0L310.149,92.554z"/>
<path fill-rule="evenodd" clip-rule="evenodd" fill="#FFFFFF" d="M174.723,158.335c4.529,0,8.2,3.671,8.2,8.201
	c0,4.529-3.671,8.2-8.2,8.2c-4.529,0-8.201-3.671-8.201-8.2C166.522,162.006,170.193,158.335,174.723,158.335z"/>
<path fill-rule="evenodd" clip-rule="evenodd" fill="#92908A" d="M319.207,182.197h-86.76v-2h76.936V93.236h-76.936v-2h87.195
	c5.826,0,10.564,4.935,10.564,11v68.961C330.207,177.263,325.272,182.197,319.207,182.197z M328.207,102.236
	c0-4.962-3.842-9-8.564-9h-8.26v86.961h7.824c4.963,0,9-4.037,9-9V102.236z M319.492,107.277c-2.142,0-3.884-1.742-3.884-3.884
	c0-2.142,1.742-3.885,3.884-3.885c2.143,0,3.885,1.743,3.885,3.885C323.377,105.535,321.635,107.277,319.492,107.277z
	 M319.492,101.508c-1.039,0-1.884,0.846-1.884,1.885c0,1.039,0.845,1.884,1.884,1.884s1.884-0.845,1.884-1.884
	C321.376,102.354,320.531,101.508,319.492,101.508z M319.492,125.697c0.553,0,1,0.448,1,1v20.039c0,0.552-0.447,1-1,1s-1-0.448-1-1
	v-20.039C318.492,126.145,318.939,125.697,319.492,125.697z M286.327,80.776c-0.015,0-0.03,0.001-0.047,0.001
	c-0.53,0-0.972-0.418-0.998-0.954c-0.035-0.748-1.082-18.312-20.276-18.312h-22.491l8.496,8.372
	c0.394,0.388,0.397,1.021,0.011,1.414c-0.196,0.199-0.454,0.298-0.713,0.298c-0.254,0-0.507-0.096-0.702-0.288l-10.234-10.084
	c-0.011-0.011-0.014-0.026-0.025-0.037c-0.07-0.076-0.129-0.162-0.174-0.258c-0.007-0.015-0.019-0.027-0.024-0.042
	c0-0.001-0.002-0.002-0.002-0.003c-0.044-0.108-0.062-0.221-0.066-0.333c-0.001-0.034,0.005-0.066,0.008-0.1
	c0.005-0.085,0.02-0.167,0.046-0.248c0.011-0.035,0.022-0.068,0.038-0.102c0.041-0.091,0.096-0.174,0.164-0.25
	c0.011-0.013,0.016-0.029,0.026-0.041c0.003-0.003,0.007-0.004,0.01-0.007c0.006-0.004,0.007-0.01,0.012-0.015l10.084-9.633
	c0.399-0.382,1.032-0.366,1.413,0.032c0.383,0.399,0.367,1.033-0.032,1.414l-8.28,7.91h22.438c16.905,0,21.963,13.227,22.274,20.221
	C287.305,80.285,286.878,80.751,286.327,80.776z M211.448,182.197h-73.834c-6.065,0-11-4.935-11-11V44.52c0-6.065,4.935-11,11-11
	h73.834c6.065,0,11,4.935,11,11v126.677C222.448,177.263,217.513,182.197,211.448,182.197z M220.448,44.52c0-4.962-4.037-9-9-9
	h-73.834c-4.962,0-9,4.038-9,9v8.856h91.834V44.52z M220.448,55.376h-91.834v95.997h91.834V55.376z M220.448,153.373h-91.834v17.824
	c0,4.963,4.038,9,9,9h73.834c4.963,0,9-4.037,9-9V153.373z M174.531,175.183c-4.702,0-8.526-3.825-8.526-8.525
	c0-4.702,3.825-8.526,8.526-8.526c4.701,0,8.525,3.825,8.525,8.526C183.056,171.358,179.231,175.183,174.531,175.183z
	 M174.531,160.131c-3.599,0-6.526,2.928-6.526,6.526c0,3.598,2.928,6.525,6.526,6.525c3.598,0,6.525-2.927,6.525-6.525
	C181.056,163.059,178.129,160.131,174.531,160.131z M160.899,101.768l6.36,5.921c0.572,0.533,1.296,0.797,2.042,0.74
	c0.745-0.056,1.422-0.424,1.909-1.036l16.852-21.208c0.342-0.433,0.972-0.505,1.405-0.161c0.433,0.343,0.504,0.972,0.161,1.405
	l-16.851,21.208c-0.837,1.054-2.018,1.688-3.325,1.786c-0.117,0.009-0.234,0.014-0.351,0.014c-1.181,0-2.307-0.449-3.204-1.284
	l-6.36-5.921c-0.404-0.376-0.427-1.009-0.05-1.414C159.862,101.415,160.496,101.393,160.899,101.768z M139.381,40.725
	c2.229,0,4.042,1.813,4.042,4.042s-1.813,4.042-4.042,4.042s-4.042-1.813-4.042-4.042S137.152,40.725,139.381,40.725z
	 M139.381,46.81c1.126,0,2.042-0.916,2.042-2.042c0-1.126-0.916-2.042-2.042-2.042c-1.126,0-2.042,0.916-2.042,2.042
	C137.339,45.894,138.255,46.81,139.381,46.81z M163.962,43.768h21.137c0.552,0,1,0.448,1,1s-0.448,1-1,1h-21.137
	c-0.552,0-1-0.448-1-1S163.41,43.768,163.962,43.768z"/>
<path fill="#345498" d="M79.302,226.026c-2.492-2.024-6.327-3.037-11.504-3.037H58.28v41.929h7.533V248.45h2.277
	c9.965,0,14.949-4.263,14.949-12.789C83.04,231.263,81.793,228.051,79.302,226.026z M74.037,241.034
	c-1.058,1.09-2.819,1.635-5.287,1.635h-2.937v-13.898h2.409c2.623,0,4.483,0.468,5.581,1.401c1.213,1.052,1.821,2.843,1.821,5.373
	C75.623,238.114,75.094,239.944,74.037,241.034z"/>
<path fill="#345498" d="M103.01,233.384c-0.233,0-0.525-0.019-0.876-0.059c-3.893,0-6.638,1.967-8.234,5.898v-0.876
	c0-0.935-0.078-2.413-0.233-4.438h-6.599c0.194,2.103,0.292,4.497,0.292,7.184v23.825h7.299v-16.176c0-5.84,2.18-8.76,6.541-8.76
	c-0.351,0,0.252,0.079,1.81,0.234V233.384z"/>
<path fill="#345498" d="M128.762,237.413c-2.336-2.764-5.645-4.146-9.927-4.146c-4.283,0-7.583,1.392-9.898,4.175
	c-2.317,2.784-3.475,6.765-3.475,11.942s1.168,9.159,3.504,11.941c2.335,2.784,5.625,4.176,9.869,4.176
	c4.282,0,7.591-1.382,9.927-4.146c2.336-2.764,3.504-6.754,3.504-11.971S131.098,240.178,128.762,237.413z M118.894,260.071
	c-3.854,0-5.781-3.542-5.781-10.628c0-7.163,1.927-10.745,5.781-10.745c3.815,0,5.723,3.582,5.723,10.745
	C124.616,256.529,122.708,260.071,118.894,260.071L118.894,260.071z"/>
<path fill="#345498" d="M154.572,250.085c-1.051-1.089-2.998-2.296-5.839-3.62c-1.947-0.896-3.193-1.577-3.737-2.044
	c-0.818-0.661-1.226-1.498-1.226-2.511c0-2.063,1.518-3.096,4.555-3.096c2.257,0,4.399,0.507,6.423,1.519l0.234-5.897
	c-2.298-0.739-4.77-1.11-7.417-1.11c-3.076,0-5.577,0.887-7.504,2.657c-1.927,1.772-2.891,4.059-2.891,6.861
	c0,2.336,0.681,4.264,2.044,5.781c1.168,1.285,3.212,2.609,6.132,3.972c1.985,0.934,3.191,1.558,3.62,1.868
	c0.818,0.584,1.227,1.343,1.227,2.277c0,2.219-1.635,3.329-4.905,3.329c-2.765,0-5.451-0.778-8.059-2.336l-0.292,6.365
	c2.764,0.973,5.527,1.46,8.292,1.46c3.504,0,6.287-0.896,8.351-2.687c2.063-1.79,3.095-4.126,3.095-7.008
	C156.675,253.453,155.974,251.526,154.572,250.085L154.572,250.085z"/>
<path fill="#345498" d="M170.28,220.888h-7.592v7.065h7.592V220.888z M169.93,233.909h-7.241v31.009h7.241V233.909z"/>
<path fill="#345498" d="M216.996,243.545c0-3.348-0.74-5.898-2.219-7.65c-1.48-1.751-3.524-2.627-6.132-2.627
	c-3.816,0-6.619,1.655-8.409,4.963c-1.324-3.308-3.932-4.963-7.825-4.963c-1.713,0-3.299,0.467-4.759,1.401
	s-2.541,2.219-3.241,3.854c0-0.467-0.098-2.004-0.292-4.613h-6.599c0.194,2.103,0.292,4.497,0.292,7.184v23.825h7.299v-18.103
	c0-2.375,0.418-4.205,1.256-5.489c0.836-1.285,1.975-1.928,3.416-1.928c2.686,0,4.029,1.85,4.029,5.548v19.972h7.241v-18.103
	c0-4.944,1.577-7.417,4.73-7.417c2.647,0,3.971,1.85,3.971,5.548v19.972h7.241V243.545z"/>
<path fill="#345498" d="M241.289,233.909l-6.016,23.885l-6.248-23.885h-7.767l10.277,32.06l-0.642,2.277
	c-0.779,2.804-2.317,4.205-4.614,4.205c-0.623,0-1.382-0.117-2.277-0.351l-0.467,5.605c1.323,0.429,2.783,0.643,4.38,0.643
	c2.92,0,5.139-0.896,6.657-2.686c1.206-1.402,2.374-4.011,3.504-7.825l10.219-33.929H241.289z"/>
<path fill="#345498" d="M289.757,237.413c-2.336-2.764-5.646-4.146-9.928-4.146c-4.283,0-7.582,1.392-9.898,4.175
	c-2.316,2.784-3.475,6.765-3.475,11.942s1.168,9.159,3.504,11.941c2.336,2.784,5.625,4.176,9.869,4.176
	c4.282,0,7.592-1.382,9.928-4.146c2.335-2.764,3.503-6.754,3.503-11.971S292.092,240.178,289.757,237.413z M279.888,260.071
	c-3.854,0-5.781-3.542-5.781-10.628c0-7.163,1.927-10.745,5.781-10.745c3.814,0,5.723,3.582,5.723,10.745
	C285.61,256.529,283.702,260.071,279.888,260.071L279.888,260.071z"/>
<path fill="#345498" d="M314.516,233.268c-3.387,0-5.977,1.597-7.767,4.788V219.72h-7.3v45.198h6.716
	c0.155-2.024,0.232-3.581,0.232-4.672c1.863,3.543,4.6,5.314,8.209,5.314c3.455,0,6.112-1.373,7.976-4.117
	c1.863-2.745,2.795-6.764,2.795-12.059C325.377,238.64,321.757,233.268,314.516,233.268L314.516,233.268z M312.238,259.954
	c-3.66,0-5.489-2.979-5.489-8.935v-3.153c0-5.956,1.829-8.935,5.489-8.935c3.658,0,5.489,3.504,5.489,10.512
	C317.728,256.45,315.896,259.954,312.238,259.954L312.238,259.954z"/>
<path fill="#345498" d="M347.275,233.384c-0.234,0-0.526-0.019-0.876-0.059c-3.894,0-6.639,1.967-8.234,5.898v-0.876
	c0-0.935-0.078-2.413-0.233-4.438h-6.599c0.194,2.103,0.292,4.497,0.292,7.184v23.825h7.299v-16.176c0-5.84,2.181-8.76,6.541-8.76
	c-0.351,0,0.253,0.079,1.811,0.234V233.384z"/>
<path fill="#345498" d="M363.976,220.888l-4.555,9.284h5.489l6.54-9.284H363.976z M373.027,237.413
	c-2.336-2.764-5.646-4.146-9.928-4.146c-4.283,0-7.582,1.392-9.898,4.175c-2.316,2.784-3.475,6.765-3.475,11.942
	s1.168,9.159,3.504,11.941c2.336,2.784,5.625,4.176,9.869,4.176c4.282,0,7.592-1.382,9.928-4.146
	c2.335-2.764,3.503-6.754,3.503-11.971S375.362,240.178,373.027,237.413z M363.158,260.071c-3.854,0-5.781-3.542-5.781-10.628
	c0-7.163,1.927-10.745,5.781-10.745c3.814,0,5.723,3.582,5.723,10.745C368.881,256.529,366.973,260.071,363.158,260.071
	L363.158,260.071z"/>
<path fill="#345498" d="M394.691,220.888l-4.497,9.284h5.489l6.54-9.284H394.691z M402.282,258.202
	c-1.791,1.013-3.699,1.519-5.723,1.519c-5.217,0-7.825-3.581-7.825-10.745c0-6.618,2.569-9.927,7.709-9.927
	c1.906,0,3.679,0.467,5.313,1.401l0.409-5.898c-2.453-0.855-4.711-1.284-6.774-1.284c-4.478,0-7.98,1.421-10.511,4.263
	c-2.531,2.842-3.796,6.853-3.796,12.029c0,4.867,1.227,8.74,3.679,11.621c2.453,2.881,5.761,4.321,9.928,4.321
	c2.724,0,5.352-0.448,7.883-1.343L402.282,258.202z"/>
<path fill="#345498" d="M167.974,300.807c-0.565-0.798-1.528-1.664-2.891-2.599c-1.693-1.168-2.677-1.878-2.949-2.131
	c-0.72-0.701-1.08-1.509-1.08-2.424c0-2.005,1.1-3.008,3.299-3.008c1.246,0,2.394,0.351,3.445,1.052l0.059-2.569
	c-1.168-0.409-2.385-0.613-3.65-0.613c-1.732,0-3.134,0.53-4.205,1.591c-1.071,1.062-1.606,2.438-1.606,4.132
	c0,1.188,0.36,2.229,1.081,3.124c0.564,0.682,1.586,1.528,3.066,2.54c1.401,0.954,2.316,1.675,2.745,2.161
	c0.661,0.72,0.993,1.587,0.993,2.599c0,1.032-0.302,1.839-0.905,2.423c-0.604,0.584-1.441,0.876-2.511,0.876
	c-1.479,0-2.842-0.447-4.087-1.343l-0.234,2.511c1.207,0.662,2.608,0.993,4.205,0.993c1.869,0,3.377-0.555,4.526-1.664
	c1.148-1.11,1.723-2.56,1.723-4.351C168.996,302.841,168.655,301.741,167.974,300.807L167.974,300.807z"/>
<path fill="#345498" d="M188.383,294.441l-2.949,12.905l-3.124-12.905h-2.862l-3.036,12.905l-2.949-12.905h-2.569l4.029,15.388
	h2.803l3.065-12.876l3.212,12.876h2.774l4.117-15.388H188.383z"/>
<path fill="#345498" d="M199.507,288.193l-1.957,4.409h2.103l2.628-4.409H199.507z M203.463,296.208
	c-1.061-1.372-2.574-2.059-4.54-2.059c-1.947,0-3.451,0.687-4.511,2.059c-1.061,1.372-1.591,3.354-1.591,5.942
	c0,2.569,0.53,4.54,1.591,5.912c1.061,1.372,2.564,2.059,4.511,2.059c1.946,0,3.455-0.687,4.525-2.059
	c1.07-1.372,1.606-3.343,1.606-5.912C205.055,299.562,204.524,297.58,203.463,296.208z M198.923,308.048
	c-2.297,0-3.446-1.966-3.446-5.897c0-3.972,1.148-5.957,3.446-5.957c2.296,0,3.445,1.985,3.445,5.957
	C202.369,306.082,201.22,308.048,198.923,308.048L198.923,308.048z"/>
<path fill="#345498" d="M211.011,288.193h-2.774v2.979h2.774V288.193z M210.895,294.441h-2.482v16.352
	c0,1.42-0.069,2.345-0.205,2.773c-0.195,0.564-0.643,0.847-1.343,0.847c-0.351,0-0.662-0.049-0.935-0.146l-0.088,2.072
	c0.487,0.137,0.993,0.205,1.519,0.205c1.421,0,2.384-0.487,2.891-1.46c0.428-0.817,0.643-2.249,0.643-4.292V294.441z"/>
<path fill="#345498" d="M228.441,307.639c-0.428,0.176-0.896,0.264-1.401,0.264c-0.779,0-1.295-0.302-1.547-0.905
	c-0.136-0.351-0.205-0.983-0.205-1.898v-8.701h3.095v-1.956h-3.095v-3.883l-2.481,0.759v3.124h-2.336v1.956h2.336v8.409
	c0,1.908,0.185,3.212,0.555,3.913c0.486,0.915,1.469,1.372,2.949,1.372c0.643,0,1.353-0.137,2.131-0.409V307.639z"/>
<path fill="#345498" d="M239.814,296.062c-0.964-1.275-2.254-1.913-3.869-1.913c-1.771,0-3.188,0.716-4.248,2.146
	c-1.062,1.431-1.592,3.392-1.592,5.883c0,5.275,2.161,7.913,6.482,7.913c1.537,0,2.842-0.302,3.912-0.905l-0.058-2.103
	c-1.208,0.662-2.355,0.993-3.446,0.993c-2.744,0-4.165-1.762-4.263-5.285h8.497c0.02-0.272,0.029-0.778,0.029-1.518
	C241.26,299.074,240.777,297.337,239.814,296.062z M232.704,301.011c0.194-3.23,1.275-4.847,3.241-4.847
	c1.907,0,2.861,1.577,2.861,4.73v0.116H232.704z"/>
<path fill="#345498" d="M247.04,287.229h-2.481v22.6h2.481V287.229z"/>
<path fill="#345498" d="M259.989,296.062c-0.964-1.275-2.253-1.913-3.868-1.913c-1.772,0-3.188,0.716-4.249,2.146
	s-1.591,3.392-1.591,5.883c0,5.275,2.16,7.913,6.481,7.913c1.538,0,2.842-0.302,3.913-0.905l-0.059-2.103
	c-1.207,0.662-2.355,0.993-3.445,0.993c-2.745,0-4.166-1.762-4.263-5.285h8.496c0.02-0.272,0.029-0.778,0.029-1.518
	C261.435,299.074,260.953,297.337,259.989,296.062z M252.88,301.011c0.194-3.23,1.274-4.847,3.241-4.847
	c1.907,0,2.861,1.577,2.861,4.73v0.116H252.88z"/>
<path fill="#345498" d="M270.895,287.143c-0.682-0.137-1.256-0.205-1.723-0.205c-1.44,0-2.458,0.36-3.051,1.081
	c-0.595,0.72-0.891,1.897-0.891,3.532v2.891h-2.512v1.956h2.512v13.432h2.481v-13.432h2.687v-1.956h-2.687v-2.832
	c0-0.935,0.136-1.601,0.409-2c0.271-0.398,0.778-0.599,1.518-0.599c0.37,0,0.789,0.068,1.256,0.204V287.143z"/>
<path fill="#345498" d="M282.471,296.208c-1.061-1.372-2.574-2.059-4.54-2.059c-1.946,0-3.45,0.687-4.511,2.059
	c-1.062,1.372-1.592,3.354-1.592,5.942c0,2.569,0.53,4.54,1.592,5.912c1.061,1.372,2.564,2.059,4.511,2.059s3.455-0.687,4.525-2.059
	s1.606-3.343,1.606-5.912C284.062,299.562,283.532,297.58,282.471,296.208z M277.931,308.048c-2.297,0-3.445-1.966-3.445-5.897
	c0-3.972,1.148-5.957,3.445-5.957s3.445,1.985,3.445,5.957C281.376,306.082,280.228,308.048,277.931,308.048L277.931,308.048z"/>
<path fill="#345498" d="M298.019,299.113c0-1.615-0.37-2.847-1.109-3.693c-0.74-0.847-1.791-1.271-3.153-1.271
	c-1.85,0-3.202,0.847-4.059,2.54c-0.039-1.012-0.078-1.761-0.116-2.248h-2.307c0.116,1.305,0.175,2.589,0.175,3.854v11.533h2.481
	v-9.168c0-1.362,0.287-2.424,0.861-3.183c0.574-0.76,1.358-1.139,2.351-1.139c1.596,0,2.395,1.041,2.395,3.124v10.365h2.481V299.113
	z"/>
</svg>
